<svg id="icons" xmlns="http://www.w3.org/2000/svg" viewBox="0 0 128 128"><defs><style>.cls-1{fill:#3bf29f;}.cls-2{fill:#16c5aa;}.cls-3{fill:#fff;}.cls-4{fill:none;stroke:#302f33;stroke-linecap:round;stroke-linejoin:round;stroke-width:4px;}</style></defs><title>barn</title><path class="cls-1" d="M118,74H106v44H18V28A18,18,0,0,1,36,10a17.7,17.7,0,0,1,4.14.49A17.988,17.988,0,0,1,54,28V39.64l18.16-8.26L73,31l33,15Z"/><path class="cls-2" d="M61.44,118a16.475,16.475,0,0,1-2.21-1.97c-2.56-2.76-3.2-6.87-6.09-9.32-6.9-5.86-17.32.21-24.02-5.65-3.85-3.37-6.5-7.75-11.12-9.08v2.938c-2.645-2.787-9.5-9.293-12.436-1.528C3.593,98.6,10,98.5,9.318,103.638c-.5,3.771,4.557,7.737,8.682,5.835V118Z"/><path class="cls-2" d="M106,46,73,31l-.84.38A12.085,12.085,0,0,0,76.44,38c5.91,5.15,16.36,7.79,16.72,16.9.19,4.65-.6,8.4,1.97,12.58,1.07,1.74,2.56,3.36,3.04,5.41.91,3.85-1.56,7.54-2.75,11.03a21.928,21.928,0,0,0,9.8,25.99c.25.15.51.3.78.44V74h12Z"/><path class="cls-3" d="M36,10A18,18,0,0,0,18,28V56.98A109.052,109.052,0,0,0,30.48,44.59c4.06-4.99,3.31-9.95,3.92-15.92.65-6.49,5.58-11.64,5.74-18.18A17.7,17.7,0,0,0,36,10Z"/><line class="cls-4" x1="10" y1="118" x2="118" y2="118"/><rect class="cls-4" x="40" y="74" width="66" height="44"/><polygon class="cls-4" points="118 74 28 74 40 46 54 39.64 73 31 106 46 118 74"/><rect class="cls-4" x="57" y="84" width="32" height="34"/><line class="cls-4" x1="73" y1="84" x2="73" y2="118"/><polygon class="cls-4" points="79 62 67 62 68 50 78 50 79 62"/><line class="cls-4" x1="57" y1="84" x2="89" y2="118"/><line class="cls-4" x1="89" y1="84" x2="57" y2="118"/><polyline class="cls-4" points="18 109.48 18 118 40 118 40 74 28 74 40 46 54 39.64 54 28 18 28 18 94.92"/><path class="cls-4" d="M18,28a18,18,0,0,1,36,0"/><path class="cls-2" d="M4.04,101.167c-1.844-2.837-5.5-1-3.417.917S5.123,102.833,4.04,101.167Z"/></svg>